# xmcd CD database file
#
# Track frame offsets:
#	150
#	26400
#	42675
#	65825
#	96625
#	118812
#	139375
#	151987
#	167212
#	189125
#
# Disc length: 2764 seconds
#
# Revision: 0
# Processed by: cddbd v1.5.1PL0 Copyright (c) Steve Scherf et al.
# Submitted via: CDex 1.51
#
DISCID=940aca0a
DTITLE=コンピレーション - COSMO POPS!
DYEAR=1900
DGENRE=Pop
TTITLE0=T.S.O.P.
TTITLE1=SEPTEMBER
TTITLE2=GOT TO BE REAL
TTITLE3=TRY JAH LOVE
TTITLE4=AFRICA
TTITLE5=HOLD ON
TTITLE6=HAZY SHADE OF WINTER
TTITLE7=WHO CAN IT BE NOW
TTITLE8=CAN'T FIGHT THIS FEELING
TTITLE9=TIME AFTER TIME
EXTD=
EXTT0=
EXTT1=
EXTT2=
EXTT3=
EXTT4=
EXTT5=
EXTT6=
EXTT7=
EXTT8=
EXTT9=
PLAYORDER=
